<svg width="240" height="240" viewBox="0 0 240 240" fill="none" xmlns="http://www.w3.org/2000/svg">
<path d="M126.297 225.582L99.0146 209.907C99.0146 209.907 204.977 203.275 202.867 204.631C200.756 205.988 135.943 226.788 135.943 226.788" fill="#D1DCED"/>
<path d="M36.3117 104.547C39.1756 98.3675 55.3035 95.0514 66.3067 90.0774C78.8172 84.3497 94.1915 81.3352 104.893 81.6366C120.569 65.8101 144.836 81.3351 147.549 85.1034C149.66 88.1179 141.671 94.5993 124.186 97.0109C124.186 97.0109 135.039 110.727 139.109 119.017C144.535 130.171 153.88 155.494 105.798 177.651C57.7152 199.808 44.7525 178.254 38.2712 164.387C35.4073 158.056 31.4884 141.627 30.1318 135.145C22.1432 136.502 3.30216 118.716 3.0007 108.014C2.84997 102.588 26.9665 98.6689 36.3117 104.547Z" fill="#DFE8F8"/>
<path d="M101.577 209.605L71.4311 216.086C68.718 209.907 66.9093 204.933 65.5527 190.764L99.3159 177.048L101.577 209.605Z" fill="#DFE8F8"/>
<path d="M71.5822 165.291C64.7994 171.772 56.5094 181.72 53.4948 191.367C53.3441 191.668 53.7962 191.97 54.0977 191.819C58.921 189.408 61.9356 188.503 66.7589 188.352C66.9096 188.352 69.9242 185.941 69.9242 185.79C70.3764 184.132 73.8431 173.581 77.0084 167.853C77.1592 167.703 77.0084 167.401 76.8577 167.25C75.3504 166.647 73.391 165.894 72.0344 165.14C71.8837 165.14 71.7329 165.14 71.5822 165.291Z" fill="#DFE8F8"/>
<path d="M79.8726 165.442C71.1303 174.033 62.6895 185.489 61.4837 205.837C61.333 206.289 62.0866 206.44 62.2373 206.138C79.8726 186.694 78.2146 197.547 89.9714 190.764C101.276 184.283 93.8903 177.801 97.0556 171.169C96.9049 171.019 83.9422 167.853 79.8726 165.442Z" fill="#DFE8F8"/>
<path d="M141.972 213.072C142.274 216.689 127.653 220.759 109.264 222.116C90.8753 223.472 71.5821 219.402 71.2806 215.785C70.9792 212.168 91.4783 210.057 98.864 209.756C116.198 209.153 141.671 209.454 141.972 213.072Z" fill="#D1DCED"/>
<path d="M140.616 213.223C140.465 210.811 128.105 208.852 114.691 208.852C107.305 209.304 101.879 209.605 99.9192 209.756C99.6177 209.756 99.467 209.756 99.1655 209.907L118.61 221.211C131.572 219.252 140.767 216.086 140.616 213.223Z" fill="#BCCEE9"/>
<path d="M235.123 209.756H99.3165C98.5629 209.756 97.96 209.153 97.96 208.399V13.658C97.96 12.9044 98.5629 12.3015 99.3165 12.3015H235.123C235.877 12.3015 236.48 12.9044 236.48 13.658V208.55C236.48 209.153 235.877 209.756 235.123 209.756Z" fill="#FFFB82"/>
<path d="M75.3504 162.729C68.1154 168.155 59.6746 177.651 56.0571 186.845C61.3326 184.132 66.4574 182.625 71.4314 181.871C71.4314 181.871 76.2547 170.717 80.1737 165.592C78.6664 164.989 76.5562 163.633 75.3504 162.729Z" fill="#5962B2"/>
<path d="M80.3248 163.633C74.7479 171.923 67.5129 184.283 65.252 201.617C81.3799 184.735 80.4755 192.724 90.4236 186.242C100.07 179.912 93.2875 174.335 95.8499 168.306C95.6991 168.306 84.093 165.743 80.3248 163.633Z" fill="#7177B5"/>
<path d="M95.3973 173.732C95.3973 173.732 84.8463 180.665 76.707 188.352C71.4315 193.176 67.3618 198.753 65.4023 201.767C67.2111 200.411 70.6778 195.889 74.7475 193.025C79.7216 189.408 82.7361 189.709 84.3941 189.257C86.0522 188.805 87.8609 188.202 90.574 186.393C95.3973 183.378 96.6031 180.213 96.9046 177.199C96.9046 177.048 96.9046 176.897 96.9046 176.897C96.7539 176.746 95.3973 173.732 95.3973 173.732Z" fill="#5962B2"/>
<path d="M138.053 166.647C110.319 171.32 96.1508 166.949 96.1508 166.949C88.9158 182.775 121.925 205.535 121.925 205.535C122.076 205.686 130.818 212.469 130.818 212.469C135.792 216.388 139.862 214.73 138.355 208.399C138.355 208.399 135.19 197.848 135.19 197.698C139.862 196.341 153.428 186.694 155.538 184.433C155.839 184.433 163.677 192.422 163.677 192.422C168.651 196.341 172.269 193.176 170.761 186.996L165.637 169.21L162.471 160.769C158.1 162.427 149.358 164.688 138.053 166.647Z" fill="#7779B6"/>
<path d="M101.577 183.831C100.824 183.228 100.221 185.639 100.221 185.639C108.963 195.135 116.198 201.466 122.83 205.988C141.671 220.005 137.3 210.66 135.19 204.933C135.19 204.933 107.606 189.407 101.577 183.831Z" fill="#6C72B2"/>
<path d="M134.738 126.855C131.422 126.554 126.297 128.061 120.569 130.774L122.077 205.385C125.543 208.55 127.804 210.359 127.804 210.359C132.778 214.278 136.848 212.62 135.341 206.289C135.341 206.289 132.175 195.738 132.175 195.587C136.848 194.231 150.414 184.584 152.524 182.323C152.825 182.323 160.663 190.312 160.663 190.312C165.637 194.231 169.255 191.065 167.747 184.886L164.884 174.184C164.884 174.184 151.318 128.664 134.738 126.855Z" fill="#6C72B2"/>
<path d="M131.422 152.78C136.245 160.468 125.694 175.842 125.694 175.842C125.694 175.842 107.154 178.706 102.331 171.019C97.5076 163.331 96.4525 155.192 108.059 147.957C120.268 140.27 126.447 144.943 131.422 152.78Z" fill="#FAFBFF"/>
<path d="M131.421 152.78C136.244 160.468 125.693 175.842 125.693 175.842C125.693 175.842 124.035 176.143 121.624 176.294L120.87 144.189C125.392 144.943 128.557 148.409 131.421 152.78Z" fill="#E9EFFC"/>
<path d="M136.697 147.656C141.521 155.343 120.268 168.004 120.268 168.004C120.268 168.004 102.18 178.254 97.96 172.224C92.6845 164.99 131.874 139.969 136.697 147.656Z" fill="#E9EFFC"/>
<path d="M105.345 173.882C103.386 174.184 100.824 174.184 98.8642 174.335C97.9598 174.335 94.1916 174.485 93.5887 173.732C88.4639 166.346 105.345 173.882 105.345 173.882Z" fill="#5F6BB0"/>
<path d="M115.896 160.015C114.389 164.387 109.867 174.033 108.812 175.842L109.867 176.445C110.922 174.636 115.444 164.839 116.951 160.317L115.896 160.015Z" fill="#605982"/>
<path d="M128.105 151.273C126.598 155.644 118.911 174.636 117.253 176.746L118.308 177.5C120.267 175.088 127.955 155.494 129.311 151.575L128.105 151.273Z" fill="#605982"/>
<path d="M128.105 151.273C127.201 153.836 123.885 162.126 121.322 168.306V171.471C123.885 165.592 128.557 153.836 129.311 151.725L128.105 151.273Z" fill="#47477D"/>
<path d="M115.595 160.166L115.444 161.372C120.116 161.824 130.969 161.975 133.079 161.673L132.928 160.468C130.969 160.618 120.267 160.618 115.595 160.166Z" fill="#47477D"/>
<path d="M102.934 167.552V168.155V168.758C107.003 169.21 127.653 170.416 130.668 169.662L130.366 168.456C127.502 169.21 107.455 168.004 102.934 167.552Z" fill="#605982"/>
<path d="M115.896 160.015C114.841 163.181 112.279 168.908 110.47 172.526L112.128 171.923C113.937 168.155 116.047 163.181 117.102 160.317L115.896 160.015Z" fill="#47477D"/>
<path d="M102.934 167.552V168.155V168.758C105.044 168.908 111.224 169.361 117.404 169.662L119.514 168.456C112.882 168.306 105.496 167.853 102.934 167.552Z" fill="#47477D"/>
<path d="M121.322 169.964C125.693 170.114 129.311 170.114 130.517 169.813L130.215 168.607C129.16 168.908 125.693 168.758 121.322 168.607V169.964Z" fill="#47477D"/>
<path d="M38.271 98.9704C40.5319 92.0369 54.2482 80.7322 65.4021 74.1002C78.0633 66.5638 94.1913 61.439 105.496 60.6853C120.418 41.995 148.303 55.7113 151.619 59.3288C154.332 62.1926 146.494 70.0305 128.105 74.8538C128.105 74.8538 141.219 88.1179 146.645 96.5587C153.729 107.713 166.692 133.789 117.856 163.03C69.0196 192.271 52.7409 170.868 44.3001 156.699C40.3812 150.218 34.2013 133.186 32.0911 126.403C23.6503 128.815 4.65851 117.811 3.15123 106.356C2.39758 100.628 27.72 93.6949 38.271 98.9704Z" fill="#7779B6"/>
<path d="M39.477 105.15C40.9842 97.1617 45.3554 88.4194 63.895 75.0046C52.8918 123.841 62.3877 147.957 64.7994 152.027C66.6081 155.041 68.2661 157.905 70.6778 160.015C74.2952 163.181 77.3098 164.688 83.4897 165.291C100.974 167.25 111.676 166.346 111.676 166.346C106.099 169.662 96.7538 173.28 96.0002 173.581C64.1964 185.338 51.3845 168.456 44.3003 156.699C40.3813 150.218 34.2014 133.186 32.0912 126.403C23.6504 128.815 4.3572 117.209 3.15137 106.356C3.15137 106.055 3.15137 104.849 3.75428 104.698C7.37177 103.191 23.9519 98.6689 39.477 105.15Z" fill="#6C72B2"/>
<path d="M119.815 51.7924C133.833 48.6271 149.358 56.6157 151.769 59.3288C154.483 62.1926 146.645 70.0305 128.256 74.8538C128.256 74.8538 141.369 88.1179 146.795 96.5587C153.578 107.11 161.115 133.789 121.172 161.071L119.815 51.7924Z" fill="#6C72B2"/>
<path d="M86.8053 107.713C63.5931 121.58 54.8509 138.311 64.3468 154.137C74.1441 170.717 91.7794 166.045 113.936 152.78C136.094 139.667 148.604 126.403 138.656 109.823C128.708 93.092 110.018 93.8456 86.8053 107.713Z" fill="#DFBD7E"/>
<path d="M121.021 148.56C137.601 137.105 147.248 124.142 138.656 109.974C133.682 101.533 128.407 98.8197 120.418 97.6138L121.021 148.56Z" fill="#DAAE67"/>
<path d="M60.7295 137.858C60.2774 141.476 60.1266 146.601 64.347 154.439C70.3762 165.592 81.3794 164.99 81.3794 164.99C69.6225 164.236 60.1266 148.409 60.7295 137.858Z" fill="#DAAE67"/>
<path d="M60.5788 143.586L60.7295 144.641C61.1817 144.038 61.7846 143.435 62.3876 142.832C81.5301 124.293 114.238 105.452 132.326 102.286C121.624 95.2022 104.742 97.6139 86.8056 108.316C69.3211 118.716 59.373 130.925 60.5788 143.586Z" fill="#DAAE67"/>
<path d="M118.006 106.658C123.282 104.547 128.105 102.889 132.326 102.136C128.256 99.4226 122.98 98.2167 117.554 98.066L118.006 106.658Z" fill="#D8AB5F"/>
<path d="M60.5788 142.682C76.4053 125.649 110.922 105 130.517 101.081C119.815 93.9964 104.592 96.8602 86.6548 107.562C69.321 118.113 59.5237 131.076 60.5788 142.682Z" fill="#CFCFCF"/>
<path d="M120.569 104.095C124.186 102.739 127.653 101.684 130.517 101.081C127.502 99.1211 124.186 97.9153 120.418 97.4631L120.569 104.095Z" fill="#C6C4CF"/>
<path d="M76.5559 101.985L92.2317 104.397L89.3678 119.771L73.8428 116.907L76.5559 101.985Z" fill="white"/>
<path opacity="0.9" d="M75.501 138.461C76.2546 140.571 78.0634 139.366 79.8721 138.311C81.6808 137.255 84.394 136.954 81.9823 134.241C81.0779 133.186 79.1185 133.035 77.4605 133.939C75.0488 135.447 75.1995 137.406 75.501 138.461Z" fill="white"/>
<path opacity="0.9" d="M112.731 116.003C114.389 117.51 112.43 118.716 110.771 119.922C109.113 121.128 107.757 123.539 106.25 120.223C105.647 118.867 106.4 117.058 107.908 116.003C110.018 114.194 111.977 115.249 112.731 116.003Z" fill="white"/>
<path d="M84.0926 149.314C86.3402 149.314 88.1623 147.492 88.1623 145.244C88.1623 142.996 86.3402 141.174 84.0926 141.174C81.845 141.174 80.0229 142.996 80.0229 145.244C80.0229 147.492 81.845 149.314 84.0926 149.314Z" fill="#2B366E"/>
<path d="M83.7914 147.354C84.1244 147.354 84.3943 147.084 84.3943 146.751C84.3943 146.418 84.1244 146.148 83.7914 146.148C83.4584 146.148 83.1885 146.418 83.1885 146.751C83.1885 147.084 83.4584 147.354 83.7914 147.354Z" fill="white"/>
<path d="M84.545 145.093C85.2942 145.093 85.9016 144.486 85.9016 143.737C85.9016 142.988 85.2942 142.38 84.545 142.38C83.7958 142.38 83.1885 142.988 83.1885 143.737C83.1885 144.486 83.7958 145.093 84.545 145.093Z" fill="white"/>
<path d="M114.841 131.076C117.089 131.076 118.911 129.254 118.911 127.006C118.911 124.758 117.089 122.936 114.841 122.936C112.594 122.936 110.771 124.758 110.771 127.006C110.771 129.254 112.594 131.076 114.841 131.076Z" fill="#2B366E"/>
<path d="M116.349 127.91C116.681 127.91 116.951 127.64 116.951 127.307C116.951 126.974 116.681 126.704 116.349 126.704C116.016 126.704 115.746 126.974 115.746 127.307C115.746 127.64 116.016 127.91 116.349 127.91Z" fill="white"/>
<path d="M113.484 127.91C114.234 127.91 114.841 127.303 114.841 126.554C114.841 125.805 114.234 125.197 113.484 125.197C112.735 125.197 112.128 125.805 112.128 126.554C112.128 127.303 112.735 127.91 113.484 127.91Z" fill="white"/>
<path d="M114.992 136.653C117.554 141.024 114.087 146.601 107.907 150.218C101.728 153.986 95.0955 154.439 92.5331 150.067C89.9707 145.696 92.3824 138.311 98.5623 134.542C104.742 130.774 112.429 132.281 114.992 136.653Z" fill="white"/>
<path d="M105.345 136.954C106.25 138.311 105.044 140.571 102.934 141.928C100.823 143.285 98.261 143.134 97.5074 141.777C96.603 140.421 98.261 139.064 100.371 137.708C102.481 136.351 104.441 135.597 105.345 136.954Z" fill="#2B366E"/>
<path opacity="0.8" d="M102.481 138.009C102.783 138.461 102.33 139.215 101.577 139.667C100.823 140.119 99.9188 140.119 99.6174 139.516C99.3159 139.064 99.9188 138.612 100.672 138.16C101.577 137.858 102.18 137.557 102.481 138.009Z" fill="white"/>
<path d="M100.522 146.751C103.537 149.766 109.114 148.108 107.908 142.38C107.908 142.38 106.25 144.34 103.537 143.737C102.934 146.148 100.522 146.751 100.522 146.751Z" fill="#E19E97"/>
<path d="M99.1655 146.148C99.1655 146.148 100.522 147.203 102.18 146.299C103.386 145.696 103.687 143.586 103.687 143.586M103.687 143.586L102.331 141.024M103.687 143.586C103.687 143.586 106.099 144.189 107.456 143.285C108.812 142.531 108.36 140.722 108.36 140.722" stroke="#2B366E" stroke-width="1.25" stroke-miterlimit="10" stroke-linecap="round" stroke-linejoin="round"/>
<path d="M168.2 185.036C168.2 185.036 167.898 183.981 167.898 183.529C166.843 183.831 161.869 185.79 159.759 189.558L161.115 190.613C166.692 194.231 170.008 191.367 168.2 185.036Z" fill="#C3CBD2"/>
<path d="M135.642 205.686C135.642 205.686 135.19 204.179 135.039 203.576C133.984 203.877 129.01 206.44 127.201 210.057L129.613 211.414C134.587 214.579 138.054 211.414 135.642 205.686Z" fill="#C3CBD2"/>
<path d="M60.5793 142.832C61.1822 142.079 60.4286 142.983 61.1822 142.229L60.5793 138.612C60.2779 139.667 60.4286 141.476 60.5793 142.832Z" fill="#C0C0CD"/>
<path d="M76.5562 101.985L73.6924 117.209L89.3681 119.62C84.0926 114.345 79.7215 108.466 76.5562 101.985Z" fill="#CFDDE5"/>
<path d="M98.5629 175.39C91.6294 173.581 81.9828 175.691 79.8726 175.842C77.4609 175.993 73.542 177.048 73.542 180.665C73.542 184.735 77.4609 186.393 80.777 186.694" fill="#5962B2"/>
<path d="M99.7685 174.787C92.835 172.978 83.1884 175.088 81.0782 175.239C78.6665 175.39 74.7476 176.445 74.7476 180.213C74.7476 184.433 78.5158 185.639 81.8318 185.79C85.6 186.091 102.934 185.79 102.934 185.79" fill="#7779B6"/>
<path d="M81.5303 175.088C81.5303 175.088 84.5449 184.584 81.8318 185.639C78.5158 185.338 74.7476 184.132 74.7476 180.062C74.7476 176.143 79.2694 175.088 81.5303 175.088Z" fill="#CFCFCF"/>
<path d="M83.0376 183.378C83.0376 184.584 82.5854 185.489 81.8318 185.639C78.5158 185.338 74.7476 184.132 74.7476 180.062C75.3505 182.775 79.1187 183.077 83.0376 183.378Z" fill="#B6C4CF"/>
<path d="M103.838 185.639C103.084 185.036 100.371 183.228 99.3159 183.228C92.8346 183.831 87.2576 183.529 82.8865 183.228C82.7358 184.886 82.2836 185.338 81.6807 185.639C82.8865 185.79 85.4489 185.639 86.8054 185.639C91.478 185.79 98.1101 185.639 100.974 185.639H103.838Z" fill="#6C72B2"/>
<path d="M135.642 228.446L126.9 226.035C126.297 225.884 125.845 225.281 125.845 224.678L125.995 23.9076C125.995 22.4003 127.051 21.0437 128.558 20.893L137.451 22.2496L136.396 226.788L138.355 228.296L137.149 228.597C136.546 228.597 136.245 228.597 135.642 228.446Z" fill="#EDED00"/>
<path d="M137.601 22.0988L136.395 23.1539L126.899 21.9481C127.352 21.3452 127.955 20.893 128.859 20.7423L236.781 12V12.3015L137.601 22.0988Z" fill="#ECE400"/>
<path d="M236.479 209.756L137.3 228.597C136.245 228.748 135.19 227.994 135.19 226.939L134.888 24.0583C134.888 23.1539 135.642 22.2495 136.546 22.2495L236.781 12.3015L236.479 209.756Z" fill="#7AE5D0"/>
<path d="M158.854 144.49C158.854 149.314 155.538 153.383 151.468 153.534C147.398 153.685 143.932 149.917 143.932 145.093C143.932 140.27 147.248 136.2 151.468 136.05C155.538 135.899 158.854 139.667 158.854 144.49Z" fill="#5CDDC0"/>
<path d="M147.549 149.163C149.056 150.218 153.578 151.122 155.538 151.273V135.296C153.88 135.145 149.659 135.899 148.152 136.652C146.193 137.708 144.987 140.27 144.836 142.983C144.685 145.545 145.74 147.957 147.549 149.163Z" fill="#ECE400"/>
<path d="M155.236 151.273C158.566 151.273 161.265 147.697 161.265 143.285C161.265 138.873 158.566 135.296 155.236 135.296C151.906 135.296 149.207 138.873 149.207 143.285C149.207 147.697 151.906 151.273 155.236 151.273Z" fill="#F4EE98"/>
</svg>
