<svg xmlns="http://www.w3.org/2000/svg" xmlns:xlink="http://www.w3.org/1999/xlink" viewBox="0 0 1000 700"><defs><style>.cls-1,.cls-24,.cls-42,.cls-48,.cls-49{fill:none;}.cls-2{fill:#45b1f4;}.cls-3{fill:#1ca5ea;}.cls-4{fill:#e6cca4;}.cls-5{fill:#d1aa8c;}.cls-10,.cls-5,.cls-8{isolation:isolate;}.cls-6{fill:#d2d2d2;}.cls-10,.cls-7{fill:#fff;}.cls-8{fill:#a0a1c2;opacity:0.23;}.cls-9{fill:#2d376e;}.cls-10{opacity:0.8;}.cls-11{fill:#f7adba;}.cls-12{fill:#7276b7;}.cls-13{fill:#5d68b5;}.cls-14{fill:#7879ba;}.cls-15{fill:#676dba;}.cls-16{fill:#e2c493;}.cls-17{fill:#2c376e;}.cls-18{fill:#dae4f2;}.cls-19{fill:#c6ced5;}.cls-20{fill:#aab6bf;}.cls-21{clip-path:url(#clip-path);}.cls-22{fill:#f9bbe4;}.cls-23{fill:#ffc5e8;}.cls-24{stroke:#ffe9f7;}.cls-24,.cls-42,.cls-48,.cls-49{stroke-linecap:round;stroke-miterlimit:10;}.cls-24,.cls-48,.cls-49{stroke-width:2px;}.cls-25{fill:#ffe9f7;}.cls-26{fill:#6eecf9;}.cls-27{fill:#85eeff;}.cls-28{fill:#caf4ff;}.cls-29{fill:#93f9a7;}.cls-30{fill:#a6ffbb;}.cls-31{fill:#f9f6cf;}.cls-32{fill:#fcfbe0;}.cls-33{fill:#8dffa2;}.cls-34{fill:#86fc9c;}.cls-35{fill:#b4fcc5;}.cls-36{fill:#b3ffbe;}.cls-37{fill:#85ff96;}.cls-38{fill:#97ffaf;}.cls-39{fill:#f9f37d;}.cls-40{fill:#fff792;}.cls-41{fill:#fffee6;}.cls-42{stroke:#d2f28b;stroke-width:2.5px;}.cls-43{fill:#bdf1ff;}.cls-44{fill:#d5aeff;}.cls-45{fill:#e1b8ff;}.cls-46{fill:#e8d7ff;}.cls-47{fill:#ffc0ec;}.cls-48{stroke:#ffe5dc;}.cls-49{stroke:#deebff;}.cls-50{fill:#f9f162;}.cls-51{fill:#efe526;}.cls-52{fill:#f9f269;}.cls-53{fill:#efea43;}.cls-54{fill:#fff03b;}.cls-55{fill:#f9e20b;}.cls-56{fill:#ffda00;}</style><clipPath id="clip-path"><rect class="cls-1" x="-0.08" width="1000" height="641.07"/></clipPath></defs><g id="レイヤー_2" data-name="レイヤー 2"><path class="cls-2" d="M782.82,695.69c12,.46,18.56,6.13,36.1,1.88,8.64-5.57,10-9.47,13.35-13.54,3.7-4.53,9.79-9.26,31-16.68l.16,0a148.85,148.85,0,0,0-55.5-6c-6.92.52-13.18,1.43-18.68,2.38C789.81,671.49,783,695.39,782.82,695.69Z"/><path class="cls-3" d="M787.59,653.83c15.28-9.05,39.2-17.1,58.58-17A99.55,99.55,0,0,0,825.59,661s-24,.46-36.33,3.58A80.21,80.21,0,0,0,787.59,653.83Z"/><path class="cls-3" d="M782.82,695.69c12,.46,22.41,2.59,36.1,1.88,7.41-15.11,36.85-26.68,44.47-30.26-17.41-3.88-65.06,14.25-67.44-4.66-6.92.52-11.46,15.68-17,16.63C779.59,687.06,783,695.39,782.82,695.69Z"/><path class="cls-2" d="M532.44,644.35c.25,3.68,19.74-9.91,25.71-14.5h0c8.7-6.71,12.23-12,12.23-12l33-50.93C579.32,561.57,529,594.61,532.44,644.35Z"/><path class="cls-3" d="M532.44,644.35s.17,1.45,2.32,1c1.83-.34,21-6.33,27-10.92l-2-5.85c3.8-18.1,10.91-31.11,25.41-50.7C568,602.06,558.77,616.23,532.44,644.35Z"/><path class="cls-2" d="M818.87,634.69a1.82,1.82,0,0,1-1.92,2c-6.12-.36-19.82-7.29-25.64-10.42h0c-9.68-5.22-14-9.86-14-9.86l-32.09-41.9C769,568.05,814.44,590.26,818.87,634.69Z"/><path class="cls-3" d="M818.54,635.91a1.29,1.29,0,0,1-1,.69c-17.24-.22-27.27-7.69-27.27-7.69-6.66-17.24-22.73-27.86-40.2-44.86C789.62,600,810,632.53,818.54,635.91Z"/><path class="cls-2" d="M562.79,693.56C540.93,619.69,579.56,544,668.13,544c95.22,0,146.12,83,118.06,147C783.75,696.6,564.14,698.12,562.79,693.56Z"/><path class="cls-4" d="M582.69,692.81c33.35,5.49,151.18,5.74,162.47,5.34,8.23-7.81,14.22-17.55,14.22-29.7,0-17.46-5.16-33-15.06-45.59-15.49-19.64-42.58-31.91-79.59-32.43l-2.51,0c-45.37,0-72.77,17.43-84.29,45.46h0C573.64,646.29,572,679.09,582.69,692.81Z"/><path class="cls-5" d="M577.24,637.79l-.47,1.68c28.34-41.28,111-44.1,166.59-10.65,11.94,9.24,16,52.72-1.35,67.37,8.92-4.4,4.18,3.48,8.92-4.4s8.45-11.19,8.45-23.34c0-17.46-5.16-33-15.06-45.59l-2.61-1.3c-16.71-16.91-44.85-29.07-77-31.13-3.15-.2-6.34-.31-9.56-.31C608.73,590.15,583.29,617.83,577.24,637.79Z"/><path class="cls-6" d="M749.2,629.08h-1.15c-40.87-27-129.67-39.11-169.94,6,6.06-20,35.61-47.57,74.94-47.57C692.87,588.06,731.08,601.57,749.2,629.08Z"/><path class="cls-7" d="M633.25,589.88l18.42-18.58,22.58,17.76-22.81,17Z"/><path class="cls-8" d="M651.67,571.3l22.58,17.76-22.81,17-2-18Z"/><path class="cls-7" d="M679.14,620c.87,3,4.12,1.92,8.3,2.6,5.83.94,8.17,4,10.28,1.52,2.8-3.29-1-9.08-7.23-10.23C683.48,612.62,677.94,615.82,679.14,620Z"/><path class="cls-7" d="M628.34,620.21c-.79,3.06-3.21,1.77-8.27,3s-6.91,3.87-8.94,1c-2.46-3.46,1.61-7.63,6.57-9.22C623.43,613.21,629.54,615.56,628.34,620.21Z"/><path class="cls-9" d="M678.76,640.08a8.69,8.69,0,1,0,17.37,0c0-4.8-3.87-8.06-8.66-8.09S678.78,635.28,678.76,640.08Z"/><path class="cls-7" d="M682,638a3.48,3.48,0,0,0,3.47,3.5A3.5,3.5,0,1,0,682,638Z"/><path class="cls-7" d="M688.27,643.13a1.08,1.08,0,1,0,1.09-1.06A1.07,1.07,0,0,0,688.27,643.13Z"/><path class="cls-9" d="M613.45,640.08a8.69,8.69,0,1,0,17.37,0c0-4.8-3.86-8.06-8.66-8.09S613.48,635.28,613.45,640.08Z"/><path class="cls-7" d="M617.24,637.73a3.32,3.32,0,0,0,3.31,3.34,3.34,3.34,0,1,0-3.31-3.34Z"/><path class="cls-7" d="M622.83,642.54a1.08,1.08,0,1,0,1.09-1.06A1.07,1.07,0,0,0,622.83,642.54Z"/><path class="cls-7" d="M677.67,662.55c.05-11.81-10.93-21.42-24.53-21.48s-24.67,9.47-24.72,21.27,11,19.07,24.63,19.13S677.62,674.35,677.67,662.55Z"/><path class="cls-9" d="M659.49,648.66c0,3.48-4.31,6.28-9.62,6.28s-9.62-2.83-9.62-6.28,4.31-4.2,9.62-4.2S659.49,645.18,659.49,648.66Z"/><path class="cls-10" d="M649.45,647.52c0,1.22-1.48,2.18-3.35,2.18s-3.36-1-3.36-2.18,1.48-1.46,3.36-1.46S649.45,646.33,649.45,647.52Z"/><path class="cls-11" d="M617.88,657.77c0-3.85-4.58-7-10.26-7s-10.31,3.08-10.33,6.94,4.58,7,10.27,7S617.87,661.63,617.88,657.77Z"/><path class="cls-11" d="M703.15,663.12c5.46,0,9.88-3,9.87-6.75s-4.46-6.7-9.93-6.67-9.88,3-9.86,6.75S697.69,663.14,703.15,663.12Z"/><path class="cls-12" d="M190,680.62c-13.92.53-21.44,15.39-41.9,2.19-10-6.46-11.63-11-15.49-15.72-4.28-5.25-11.35-10.75-35.91-19.35a.59.59,0,0,1-.19,0,172.79,172.79,0,0,1,64.4-6.94c8,.61,15.29,1.67,21.68,2.77C181.86,652.55,189.79,680.28,190,680.62Z"/><path class="cls-13" d="M184.44,632.06c-17.74-10.51-45.49-19.85-68-19.73a115.77,115.77,0,0,1,23.87,28s27.79.54,42.16,4.16A89.92,89.92,0,0,1,184.44,632.06Z"/><path class="cls-13" d="M190,680.62c-13.92.53-21.44,15.39-41.9,2.19-10-6.46-11.63-11-15.49-15.72,20.2-4.5,47.45-8.7,49.75-19.69,8,.61,5.7,13.08,12.08,14.18C193.72,670.61,189.79,680.28,190,680.62Z"/><path class="cls-14" d="M469.57,605.1c-1.38,2.35-16.12,3.83-28.25,2.35l-.21,0c-1.22-.16-2.41-.34-3.56-.55a34.13,34.13,0,0,1-6.69-1.87c-10.5-4.47-10.79-9.67-10.79-10.25v0l-8.34-9.43-32-36.13C430.35,528.61,475.32,595.34,469.57,605.1Z"/><path class="cls-15" d="M469.57,605.1c-1.38,2.35-16.12,3.83-28.25,2.35l-.21,0c-1.15-.17-2.34-.34-3.56-.55-4.4-.73-9.32-1.76-14.77-3.16l-6.13-3.39a49.36,49.36,0,0,1-4.92-15c-1.26-7.51-1.44-13.84-11.88-28.89C437,585.6,440,602.09,469.57,605.1Z"/><path class="cls-14" d="M438.33,692.55c-75.7,8.29-258.46,5.83-258.75,4.42s-.6-2.94-.89-4.42h0c-.53-2.76-1-5.52-1.39-8.26-.19-1.37-.37-2.73-.54-4.1q-.36-3-.61-5.93l0-.35c-.1-1.25-.2-2.5-.27-3.75-.25-4.13-.36-8.21-.3-12.26,0-.36,0-.72,0-1.07,0-.12,0-.24,0-.37,0-1.39.08-2.78.14-4.17l.18-3c.06-.84.13-1.68.19-2.52s.17-1.87.26-2.79.19-1.75.3-2.61q.47-3.87,1.12-7.68a2,2,0,0,0,.05-.26c.14-.8.29-1.6.44-2.39s.34-1.7.52-2.54.36-1.69.55-2.53.43-1.79.65-2.67.38-1.5.58-2.25a.64.64,0,0,0,0-.07c.22-.81.45-1.63.68-2.45.44-1.52.91-3,1.4-4.53.3-.92.61-1.83.93-2.74.55-1.59,1.14-3.18,1.76-4.74s1.25-3.12,1.93-4.65,1.37-3.06,2.1-4.55A125.73,125.73,0,0,1,198,582.12l0,0c.42-.65.87-1.31,1.32-2A122.6,122.6,0,0,1,212.81,564c.49-.49,1-1,1.48-1.45a129.31,129.31,0,0,1,43.93-28.08l1.57-.6c17.54-6.59,37.61-10.23,60-10.23C414.91,523.63,444.65,599.17,438.33,692.55Z"/><path class="cls-16" d="M417,688.26c-34.57,10.26-181.61,11.74-188.73,7-6.58-7.86-11-17.16-11-28.06,0-19.17,3.8-36.87,15-50.65,17.55-21.57,48.26-35,90.21-35.62l2.85,0c51.43,0,82.49,19.14,95.54,49.92h0C425.76,642.27,427.29,671.9,417,688.26Z"/><path class="cls-17" d="M299.34,646.91a8.88,8.88,0,1,0-8.88-8.88A8.87,8.87,0,0,0,299.34,646.91Z"/><path class="cls-7" d="M298.31,640.93a1.19,1.19,0,1,0-1.18-1.19A1.19,1.19,0,0,0,298.31,640.93Z"/><path class="cls-7" d="M302.15,638a2.81,2.81,0,1,0-2.81-2.81A2.81,2.81,0,0,0,302.15,638Z"/><path class="cls-17" d="M371.51,646.33a8.88,8.88,0,1,0-8.88-8.88A8.87,8.87,0,0,0,371.51,646.33Z"/><path class="cls-7" d="M371.34,640.12a1.19,1.19,0,1,0-1.18-1.18A1.18,1.18,0,0,0,371.34,640.12Z"/><path class="cls-7" d="M374.15,636.74a2.82,2.82,0,1,0-2.81-2.81A2.81,2.81,0,0,0,374.15,636.74Z"/><path class="cls-7" d="M374.3,670.15c0,16.12-15.42,26.22-36.38,26.22s-38-9.56-38-25.68,17-32.7,38-32.66S374.3,654,374.3,670.15Z"/><path class="cls-17" d="M351.21,648.49c0,3.93-4.87,7.1-10.89,7.1s-10.89-3.17-10.89-7.1,4.87-4.75,10.89-4.75S351.21,644.55,351.21,648.49Z"/><path class="cls-10" d="M347.39,647.19c0,1.36-1.69,2.48-3.78,2.48s-3.78-1.12-3.78-2.48,1.7-1.67,3.78-1.67S347.39,645.82,347.39,647.19Z"/><path class="cls-14" d="M260.79,541C256,546.7,238,575,228.17,586.62c-.56.66-5.74,4.55-6.55,4.34-.39-.11-.8-.22-1.22-.38-1.69-.59-4.43-.63-7.44-1-3.55-.39-7.46-1.17-10.48-3.65-1.43-1.18-2.91-2.49-4.4-3.9-15.41-14.53-33.17-41-37.34-72.15-.14-1,.2-2.43,2.16-3.44a6.91,6.91,0,0,1,1-.44,12.43,12.43,0,0,1,2.55-.57c57.08-6.85,78.92,12.5,91.72,29,0,.06.09.12.14.17.88,1.15,1.72,2.28,2.53,3.38A2.4,2.4,0,0,1,260.79,541Z"/><path class="cls-5" d="M420.9,630.84h0c-29.19-39.19-124-46.37-185.89-1.67-10.9,8.17-8.05,44.68-.42,64.88,1.84,4.87-8,5.8-9.83,2.21-4.19-8.08-8.14-18-8.44-27.19-.84-25.68,4.76-38.73,16-52.51l3-1.43c18.95-18.57,50.85-31.93,87.26-34.19,3.57-.22,7.19-.34,10.84-.34C386,580.62,414.05,608.91,420.9,630.84Z"/><path class="cls-15" d="M179.58,697c-.31-1.46-.6-2.94-.89-4.42h0c-.53-2.76-1-5.52-1.39-8.26-.19-1.37-.37-2.73-.54-4.1q-.36-3-.61-5.93l0-.35c-.1-1.25-.2-2.5-.27-3.75-.25-4.13-.36-8.21-.3-12.26,0-.36,0-.72,0-1.07,0-.12,0-.24,0-.37,0-1.39.08-2.78.14-4.17l.18-3c.06-.84.13-1.68.19-2.52s.17-1.87.26-2.79.19-1.75.3-2.61q.47-3.87,1.12-7.68a2,2,0,0,0,.05-.26c.14-.8.29-1.6.44-2.39s.34-1.7.52-2.54.36-1.69.55-2.53.43-1.79.65-2.67.38-1.5.58-2.25a.64.64,0,0,0,0-.07c.22-.81.45-1.63.68-2.45.44-1.52.91-3,1.4-4.53.3-.92.61-1.83.93-2.74.56-1.59,1.15-3.18,1.76-4.74s1.26-3.12,1.93-4.65,1.38-3.05,2.1-4.55A125.73,125.73,0,0,1,198,582.12l0,0c-15.41-14.53-33.17-41-37.34-72.15-.14-1,.2-2.43,2.16-3.44a6.91,6.91,0,0,1,1-.44c9.52,32.12,38.9,69.59,61,62.06a131,131,0,0,0-12,21.52c-10.32,22.67-21.67,61.14-8.85,105.13C206.37,702.5,179.87,698.38,179.58,697Z"/><path class="cls-6" d="M225,627.36h0c51.9-33.7,148.35-49.54,194,0-6.86-21.93-37.89-52.56-82.47-52.56C285.35,574.83,240.27,598.49,225,627.36Z"/><path class="cls-7" d="M361.09,578.09l-19-21.7L316.81,576,342,599.2Z"/><path class="cls-8" d="M342.05,556.39,316.81,576,342,599.18l2.74-22.46Z"/><path class="cls-7" d="M306.94,616.57c.21,3.27-4.85,1.53-11.17,3.51s-8.2,5.13-10.4,3.55c-5.52-4,.61-11.31,6.93-13.29S306.57,610.55,306.94,616.57Z"/><path class="cls-7" d="M365.3,617.42c1.21,2.94,3.9,1.11,8.95,2.52s6.93,5.18,9.05,2.38c2.57-3.39-1.36-9.49-6.38-11C369.43,609.1,363.45,612.89,365.3,617.42Z"/><ellipse class="cls-18" cx="338.95" cy="677.11" rx="7.68" ry="6.14"/><rect class="cls-7" x="-0.08" y="675.96" width="1000" height="24"/><ellipse class="cls-19" cx="173.98" cy="676.24" rx="26.17" ry="22.27"/><path class="cls-20" d="M200.14,676.24c0,12.3-11.71,22.28-26.17,22.28s-26.16-10-26.16-22.28a19.48,19.48,0,0,1,2.35-9.24c3.81,6.07,16.07,6.07,23.81,6.07,9.92,0,20.83.91,22.92-7.58A19.63,19.63,0,0,1,200.14,676.24Z"/><ellipse class="cls-19" cx="764.43" cy="672.63" rx="17.68" ry="15.05"/><path class="cls-20" d="M746.75,672.63c0,8.31,7.92,15,17.68,15s17.69-6.74,17.69-15a13.05,13.05,0,0,0-1.6-6.25c-2.57,4.1-10.85,4.1-16.09,4.1-6.7,0-14.07.62-15.48-5.12A13.28,13.28,0,0,0,746.75,672.63Z"/><ellipse class="cls-19" cx="452.41" cy="675.6" rx="21.1" ry="17.96"/><path class="cls-20" d="M473.5,675.6c0,9.91-9.44,18-21.09,18s-21.1-8-21.1-18a15.65,15.65,0,0,1,1.9-7.45c3.07,4.89,13,4.89,19.2,4.89,8,0,16.79.74,18.48-6.11A15.8,15.8,0,0,1,473.5,675.6Z"/><ellipse class="cls-19" cx="561.08" cy="672.24" rx="18.07" ry="15.38"/><path class="cls-20" d="M579.15,672.24c0,8.49-8.08,15.38-18.07,15.38S543,680.73,543,672.24a13.43,13.43,0,0,1,1.62-6.38c2.63,4.19,11.1,4.19,16.45,4.19,6.85,0,14.38.63,15.83-5.24A13.55,13.55,0,0,1,579.15,672.24Z"/><g class="cls-21"><path class="cls-22" d="M249.53,452.46a13,13,0,1,1,.38-12.89A13,13,0,0,1,249.53,452.46Z"/><path class="cls-23" d="M248.21,448.65a8.9,8.9,0,1,1,1.7-9.08A13,13,0,0,1,248.21,448.65Z"/><path class="cls-24" d="M232.16,439.46a4.3,4.3,0,0,1,2.22-2.35"/><circle class="cls-25" cx="230.62" cy="442.17" r="0.99"/><path class="cls-26" d="M171,351.79a35.73,35.73,0,1,1-11.84-49.1A35.3,35.3,0,0,1,172,316.37,35.69,35.69,0,0,1,171,351.79Z"/><path class="cls-27" d="M167.36,341.31a35.72,35.72,0,0,1-62-1.86A35.71,35.71,0,0,1,172,316.37,35.57,35.57,0,0,1,167.36,341.31Z"/><path class="cls-28" d="M123.23,318.07a2,2,0,0,1-.72-.13,2,2,0,0,1-1.14-2.59,14,14,0,0,1,7.15-7.56,2,2,0,0,1,1.66,3.64,9.89,9.89,0,0,0-5.08,5.37A2,2,0,0,1,123.23,318.07Z"/><circle class="cls-28" cx="119.01" cy="323.51" r="2.72"/><path class="cls-29" d="M798.76,39.15a68.64,68.64,0,0,1-94.34,22.73,68.5,68.5,0,0,1-31.78-46.44,68.26,68.26,0,0,1,9-47.93A68.65,68.65,0,0,1,776-55.19a67.75,67.75,0,0,1,24.74,26.28A68.54,68.54,0,0,1,798.76,39.15Z"/><path class="cls-30" d="M791.77,19a68.61,68.61,0,0,1-94.34,22.74,68.05,68.05,0,0,1-24.79-26.32,68.26,68.26,0,0,1,9-47.93A68.65,68.65,0,0,1,776-55.19a67.75,67.75,0,0,1,24.74,26.28A68.26,68.26,0,0,1,791.77,19Z"/><path class="cls-31" d="M793.28,479.61c5.59-2.63,17.21-.3,17.21-.3L783,503.52s-5.85-1.32-15.16,1C769.14,501.83,793.28,479.61,793.28,479.61Z"/><path class="cls-32" d="M793.35,479.36c5.37-2.23,18.92,1.65,18.92,1.65l-27.45,24.21a30.92,30.92,0,0,0-16.75-.48C769.33,502.07,793.35,479.36,793.35,479.36Z"/><path class="cls-31" d="M793.35,479.36c.35-9.11-14.31-19.23-25-22.49l-21.71,26.46s17.23,12.08,20.84,21C768.9,501.71,793.35,479.36,793.35,479.36Z"/><path class="cls-32" d="M793.35,479.36c-3.22-15.22-26.43-22.1-26.43-22.1l-22.82,26s20.39,11.93,24,20.81C769.52,501.48,793.35,479.36,793.35,479.36Z"/><path class="cls-31" d="M793.23,479.93c5.38-2.23,19.32,2.64,19.32,2.64L787,506.13s-9.64-3.38-19-1.07C769.29,502.39,793.23,479.93,793.23,479.93Z"/><path class="cls-33" d="M792.84,480.35l-26.2,24.75s-11.45-16.85-26.45-20.72c3.95-4,24.45-26.33,24.45-26.33C778.41,462.06,789,467.3,792.84,480.35Z"/><path class="cls-33" d="M792.66,480.26c5.38-2.23,20.73,3.43,20.73,3.43L785.94,507.9s-10.56-5.28-19.87-3C767.32,502.25,792.66,480.26,792.66,480.26Z"/><path class="cls-34" d="M793,480.81c5.38-2.23,20.72,3.43,20.72,3.43l-27.45,24.21s-10.56-5.28-19.87-3C767.7,502.8,793,480.81,793,480.81Z"/><path class="cls-35" d="M792.65,480.73l-26.21,24.75s-11.08-16.71-26.08-20.58c3.95-4,24.45-26.32,24.45-26.32C778.58,462.58,788.85,467.68,792.65,480.73Z"/><polygon class="cls-33" points="812.45 483.78 813.76 484.24 813.49 483.73 812.72 483.45 812.45 483.78"/><polygon class="cls-31" points="810.59 482.74 812.89 483.5 812.55 482.57 812.18 482.44 810.59 482.74"/><path class="cls-36" d="M792.26,479.45A3.14,3.14,0,0,0,794,480.6l-.21-.66-1.41-1.08Z"/><path class="cls-37" d="M765.4,505.09l1.39.84L794,480.6a3.14,3.14,0,0,1-1.72-1.15Z"/><polygon class="cls-38" points="740.19 484.38 740.36 484.9 764.81 458.58 764.64 458.05 740.19 484.38"/><path class="cls-39" d="M224,131.09A70,70,0,1,1,200.8,34.92,69.07,69.07,0,0,1,226,61.71,69.86,69.86,0,0,1,224,131.09Z"/><path class="cls-40" d="M216.84,110.57a69.95,69.95,0,0,1-121.42-3.65A69.94,69.94,0,0,1,226,61.71,69.55,69.55,0,0,1,216.84,110.57Z"/><path class="cls-41" d="M123.84,58.93a3,3,0,0,1-2.73-4.24,20.43,20.43,0,0,1,11-10.5,3,3,0,0,1,2.21,5.58,14.38,14.38,0,0,0-7.75,7.39A3,3,0,0,1,123.84,58.93Z"/><circle class="cls-41" cx="117.92" cy="67" r="3.96"/><path class="cls-42" d="M95.54,88.23C44.86,102.79,4.05,183,73.11,164.14c75.63-20.67,119.46-60.25,196.12-23.11"/><circle class="cls-43" cx="280.49" cy="147.33" r="4.44"/><path class="cls-44" d="M896.31,374.94a27.66,27.66,0,1,1-9.16-38,27.3,27.3,0,0,1,10,10.59A27.6,27.6,0,0,1,896.31,374.94Z"/><path class="cls-45" d="M893.49,366.82a27.64,27.64,0,0,1-48-1.44,27.65,27.65,0,0,1,51.62-17.87A27.43,27.43,0,0,1,893.49,366.82Z"/><path class="cls-46" d="M856.35,348.55a1.47,1.47,0,0,1-.54-.1,1.51,1.51,0,0,1-.85-1.95,9.56,9.56,0,0,1,4.95-5.24,1.5,1.5,0,1,1,1.25,2.73,6.67,6.67,0,0,0-3.41,3.6A1.5,1.5,0,0,1,856.35,348.55Z"/><circle class="cls-46" cx="853.46" cy="352.14" r="1.86"/><circle class="cls-47" cx="907.23" cy="393.84" r="2.51"/><path class="cls-48" d="M900.37,396.55c-72.73,26.67-95.09-17.52-56-36.05"/><circle class="cls-47" cx="871.97" cy="172.56" r="2.51"/><path class="cls-49" d="M804.47,236.91c122.52-7.45,113.93-67.28,74.7-64.24"/><path class="cls-31" d="M823.08,165.57c-.28-10.41-12.57-26.12-12.57-26.12l-15.66,59.62s6.42,7.8,10,23.56C807.92,218.72,823.08,165.57,823.08,165.57Z"/><path class="cls-32" d="M823.41,165.28c-.72-9.78-16.81-27.22-16.81-27.22l-15.66,59.62a51.91,51.91,0,0,1,13.41,24.84C807.41,218.6,823.41,165.28,823.41,165.28Z"/><path class="cls-31" d="M823.41,165.28c13.44-7.42,39.76,7,52.76,20.59l-23.38,52.69s-31.23-16.78-47.33-15.48C808.27,219,823.41,165.28,823.41,165.28Z"/><path class="cls-32" d="M823.41,165.28c25.33-6.68,53.26,23,53.26,23l-21.85,54S821.44,220.66,805.34,222C808.16,217.86,823.41,165.28,823.41,165.28Z"/><path class="cls-31" d="M822.64,165.88c-.72-9.78-18.59-27.07-18.59-27.07L788,195.13s12.37,11.94,15.95,27.69C807,218.91,822.64,165.88,822.64,165.88Z"/><path class="cls-50" d="M822.3,166.79,804.9,225s34,4.47,51.19,24.11c3.09-9,21.11-56.72,21.11-56.72C860.75,174.66,844.82,162.63,822.3,166.79Z"/><path class="cls-51" d="M822.57,167c-.72-9.78-20.84-28.59-20.84-28.59L786.07,198s15.93,11.9,19.51,27.66C808.65,221.76,822.57,167,822.57,167Z"/><path class="cls-52" d="M821.46,166.84c-.72-9.78-20.84-28.59-20.84-28.59L785,197.87s15.93,11.9,19.51,27.66C807.54,221.61,821.46,166.84,821.46,166.84Z"/><path class="cls-53" d="M821.87,167.37l-17.4,58.16s33.53,4,50.7,23.67c3.09-9,21.11-56.71,21.11-56.71C859.83,174.8,844.39,163.21,821.87,167.37Z"/><polygon class="cls-51" points="802.31 139.88 800.62 138.25 801.59 138.27 802.6 139.23 802.31 139.88"/><polygon class="cls-31" points="805.27 141.88 802.38 139.01 804.05 138.81 804.51 139.26 805.27 141.88"/><path class="cls-54" d="M824.1,167c-.6.17-3.07-1.34-3-1.72l1.16-.18,2.69,1.3Z"/><path class="cls-55" d="M805.83,226.8l-2.31-1.46,17.54-60.08a5.29,5.29,0,0,0,3,1.72Z"/><path class="cls-56" d="M806.79,226.56l-1,.24L824.1,167a4.55,4.55,0,0,0,.81-.59Z"/><polygon class="cls-55" points="856.09 249.06 855.17 249.2 876.28 192.49 877.2 192.34 856.09 249.06"/></g></g></svg>