<svg width="148" height="136" viewBox="0 0 148 136" fill="none" xmlns="http://www.w3.org/2000/svg">
<path opacity="0.3" d="M57.048 133.813C54.567 136.146 52.015 134.466 49.5339 132.186C49.5339 132.186 42.4923 125.266 40.0112 117C40.1885 119.307 40.4366 121.627 40.7319 123.906C41.0037 124.306 41.2754 124.706 41.559 125.093C45.0679 129.906 49.2858 133.133 49.2858 133.133C52.2631 135.52 54.7324 136.493 56.9299 134.573C57.7687 133.84 58.0759 132.88 58.0877 131.906C57.9578 132.613 57.6388 133.266 57.048 133.813Z" fill="#615A86"/>
<path d="M50.7396 118.202C50.7396 118.202 56.387 126.815 56.4579 126.882C57.4385 127.668 59.4352 131.575 57.0486 133.828C54.5675 136.161 52.0156 134.481 49.5345 132.202C49.5345 132.202 42.4811 125.268 40 117.002" fill="#7979BA"/>
<path d="M49.6631 132.388C49.6631 132.388 54.578 125.375 56.4447 126.895C57.4372 127.708 59.4811 131.682 57.0473 133.962C54.5307 136.322 50.6555 133.962 49.6631 132.388Z" fill="#C6CED5"/>
<path opacity="0.3" d="M100.988 117.375C98.5069 125.642 91.4535 132.575 91.4535 132.575C88.9724 134.855 86.4204 136.535 83.9394 134.201C83.3486 133.655 83.0296 133.001 82.8997 132.322C82.9115 133.295 83.2187 134.241 84.0575 134.988C86.255 136.895 88.7243 135.935 91.7016 133.548C91.7016 133.548 95.9077 130.322 99.4284 125.508C99.7474 125.068 100.066 124.615 100.362 124.162C100.634 121.908 100.846 119.642 100.988 117.375C100.988 117.375 101 117.375 100.988 117.375Z" fill="#615A86"/>
<path d="M90.2604 118.575C90.2604 118.575 84.613 127.188 84.5421 127.255C83.5615 128.042 81.5648 131.948 83.9514 134.201C86.4325 136.535 88.9845 134.855 91.4655 132.575C91.4655 132.575 98.5189 125.642 101 117.375" fill="#7979BA"/>
<path d="M91.3334 132.762C91.3334 132.762 86.4184 125.748 84.5517 127.268C83.5593 128.082 81.5153 132.055 83.9492 134.335C86.4657 136.708 90.3409 134.348 91.3334 132.762Z" fill="#C6CED5"/>
<mask id="mask0" mask-type="alpha" maskUnits="userSpaceOnUse" x="0" y="0" width="148" height="120">
<rect width="148" height="120" fill="#88E7CE"/>
</mask>
<g mask="url(#mask0)">
<path d="M96.7791 132.639C106.729 144.199 121.897 142.492 130.903 133.595C138.88 125.715 136.798 113.549 132.755 108.065C124.342 96.6504 110.204 100.173 105.253 105.983C101.524 110.365 99.7085 121.333 107.189 125.63C114.271 129.709 121.715 126.163 122.006 123.536C121.8 127.458 108.945 134.842 99.3453 123.294" fill="#7879BA"/>
<path opacity="0.23" d="M114.415 124.08C113.628 124.128 109.948 124.31 106.026 122.167C104.452 121.308 103.302 120.327 102.564 119.613C103.266 122.034 104.706 124.201 107.2 125.641C114.281 129.721 121.726 126.174 122.017 123.547C122.017 123.547 122.017 123.547 122.017 123.535C122.319 122.155 122.368 121.441 122.186 121.368C122.125 121.344 122.053 121.392 121.944 121.489C120.77 122.288 118.131 123.838 114.415 124.08Z" fill="#615A86"/>
<path d="M26.3772 88.4312C20.1794 94.52 11.948 103.829 7.04541 118.294C7.06962 118.282 7.09383 118.258 7.10594 118.246C23.8109 106.552 21.5715 113.271 31.2434 109.458C40.6006 105.778 37.4291 99.6767 40.6006 94.8831C40.4433 94.8589 29.234 90.8401 26.3772 88.4312Z" fill="#7879BA"/>
<path opacity="0.24" d="M26.9954 96.8318C29.9732 99.967 31.0506 104.373 30.6511 109.699C30.8448 109.627 31.0506 109.554 31.2563 109.469C36.0742 107.581 37.5631 105.039 38.3257 102.376C33.7742 100.839 30.0337 98.9623 26.9954 96.8318Z" fill="#615A86"/>
<path d="M22.9875 85.0415C15.1918 88.4551 5.37464 95.5124 0 103.078C5.37464 101.759 10.4588 101.468 15.1555 101.831C15.1555 101.831 22.0312 92.6435 26.7038 88.6972C25.6143 87.7651 23.9559 86.1915 22.9875 85.0415Z" fill="#646DA9"/>
<path d="M96.5129 87.3908C88.4388 80.9025 54.2057 81.4836 45.1148 87.3787C31.2424 96.3728 45.139 140.399 45.139 140.399C45.1753 140.605 48.6253 150.47 48.6253 150.47C50.6468 156.196 54.6899 156.825 56.7114 151.1C56.7114 151.1 59.4714 141.065 59.5803 140.992C64.0108 142.215 79.7232 141.379 82.5073 140.75C82.7978 140.883 84.9646 151.233 84.9646 151.233C86.9862 156.959 91.3561 156.196 93.3777 150.47L96.525 140.411C96.525 140.411 108.836 97.2928 96.5129 87.3908Z" fill="#7879BA"/>
<path d="M87.2278 107.412C87.1914 116.031 70.898 122.955 70.898 122.955C70.898 122.955 54.6652 115.898 54.7015 107.279C54.7378 98.6604 58.0667 91.6879 71.0312 91.7363C84.7099 91.7969 87.2762 98.7936 87.2278 107.412Z" fill="#FDFEFF"/>
<mask id="mask1" mask-type="alpha" maskUnits="userSpaceOnUse" x="54" y="91" width="34" height="32">
<path d="M87.2278 107.412C87.1914 116.031 70.898 122.955 70.898 122.955C70.898 122.955 54.6652 115.898 54.7015 107.279C54.7378 98.6604 58.0667 91.6879 71.0312 91.7363C84.7099 91.7969 87.2762 98.7936 87.2278 107.412Z" fill="#FDFEFF"/>
</mask>
<g mask="url(#mask1)">
<path fill-rule="evenodd" clip-rule="evenodd" d="M63.7361 110.6C66.5152 108.771 69.4924 106.713 71.2135 105.35L71.9649 106.299C70.1997 107.697 67.1849 109.779 64.4017 111.611C61.6318 113.435 59.028 115.053 58.0995 115.498L57.5762 114.406C58.415 114.004 60.9438 112.438 63.7361 110.6Z" fill="#615A86"/>
<path fill-rule="evenodd" clip-rule="evenodd" d="M74.1451 112.908C78.7675 109.675 83.4913 106.222 85.2196 104.854L85.971 105.803C84.213 107.194 79.4646 110.665 74.8388 113.9C72.5241 115.518 70.2337 117.082 68.3576 118.301C67.4199 118.911 66.5814 119.436 65.893 119.841C65.2178 120.237 64.6486 120.54 64.2653 120.678L63.8555 119.539C64.1198 119.444 64.6003 119.196 65.28 118.797C65.9463 118.406 66.7678 117.891 67.698 117.286C69.5578 116.078 71.8356 114.523 74.1451 112.908Z" fill="#615A86"/>
<path fill-rule="evenodd" clip-rule="evenodd" d="M77.808 111.611C75.0248 109.779 72.0101 107.697 70.2449 106.299L70.9962 105.35C72.7173 106.713 75.6946 108.771 78.4736 110.6C81.2659 112.438 83.7947 114.004 84.6336 114.406L84.1102 115.498C83.1817 115.053 80.578 113.435 77.808 111.611Z" fill="#615A86"/>
<path fill-rule="evenodd" clip-rule="evenodd" d="M67.371 113.9C62.7451 110.665 57.9967 107.195 56.2388 105.803L56.9901 104.854C58.7184 106.222 63.4423 109.676 68.0647 112.908C70.3741 114.523 72.6519 116.078 74.5117 117.287C75.4419 117.891 76.2634 118.406 76.9297 118.797C77.6094 119.196 78.0899 119.444 78.3543 119.539L77.9444 120.678C77.5611 120.54 76.9919 120.237 76.3168 119.841C75.6283 119.437 74.7899 118.911 73.8521 118.302C71.976 117.083 69.6857 115.519 67.371 113.9Z" fill="#615A86"/>
</g>
<path opacity="0.3" d="M56.7113 126.658C54.1693 128.776 51.5546 127.251 49.0125 125.181C49.0125 125.181 41.7979 118.898 39.2559 111.393C39.4374 113.487 39.6916 115.594 39.9943 117.664C40.2727 118.027 40.5511 118.39 40.8416 118.741C44.4368 123.111 48.7583 126.04 48.7583 126.04C51.8088 128.207 54.3388 129.091 56.5903 127.348C57.4498 126.682 57.7645 125.81 57.7766 124.927C57.6434 125.568 57.3166 126.161 56.7113 126.658Z" fill="#615A86"/>
<path d="M50.2479 112.484C50.2479 112.484 56.0341 120.304 56.1067 120.365C57.1114 121.079 59.1572 124.626 56.712 126.671C54.1699 128.79 51.5552 127.264 49.0132 125.195C49.0132 125.195 41.7864 118.9 39.2444 111.395" fill="#7979BA"/>
<path d="M49.1448 125.364C49.1448 125.364 54.1805 118.997 56.0931 120.377C57.1099 121.116 59.2041 124.723 56.7104 126.793C54.1321 128.935 50.1616 126.793 49.1448 125.364Z" fill="#C6CED5"/>
<path opacity="0.3" d="M101.731 111.734C99.189 119.239 91.9623 125.534 91.9623 125.534C89.4202 127.604 86.8055 129.129 84.2635 127.01C83.6582 126.514 83.3314 125.921 83.1982 125.304C83.2103 126.187 83.5251 127.047 84.3845 127.725C86.6361 129.456 89.166 128.584 92.2165 126.417C92.2165 126.417 96.5259 123.488 100.133 119.118C100.46 118.719 100.787 118.307 101.09 117.895C101.368 115.85 101.586 113.792 101.731 111.734C101.731 111.734 101.743 111.734 101.731 111.734Z" fill="#615A86"/>
<path d="M90.7395 112.824C90.7395 112.824 84.9533 120.643 84.8807 120.704C83.876 121.418 81.8302 124.965 84.2755 127.011C86.8175 129.129 89.4322 127.604 91.9743 125.534C91.9743 125.534 99.201 119.239 101.743 111.734" fill="#7979BA"/>
<path d="M91.8392 125.704C91.8392 125.704 86.8035 119.337 84.8909 120.717C83.874 121.455 81.7799 125.062 84.2735 127.132C86.8519 129.287 90.8223 127.144 91.8392 125.704Z" fill="#C6CED5"/>
<path opacity="0.3" d="M99.5265 102.897C99.5144 105.258 86.8646 114.179 70.6681 114.107C54.4836 114.046 41.6886 106.081 41.7007 103.708C41.7128 101.348 54.0236 103.152 70.2081 103.224C86.4047 103.297 99.5386 100.537 99.5265 102.897Z" fill="#615A86"/>
<path d="M36.4602 16.0116C41.6896 11.4844 58.3219 9.01492 70.5481 9.06334C84.481 9.11176 100.048 12.7554 109.672 17.6216C130.855 9.63228 146.822 34.2661 147.73 38.8781C148.456 42.5338 138.336 45.1001 121.135 40.0644C121.135 40.0644 125.372 57.2415 125.614 66.7318C125.941 79.2848 123.786 106.679 70.0517 106.679C16.3174 106.679 13.4243 81.4516 13.4001 65.8603C13.388 58.7304 16.6564 41.9286 18.1211 35.3797C10.1317 33.3098 3.88553 11.3633 8.18282 1.37663C10.3859 -3.7438 32.3203 6.37602 36.4602 16.0116Z" fill="#7879BA"/>
<path opacity="0.25" d="M147.732 39.4704C146.557 40.9351 132.963 42.1335 120.156 36.1052C117.36 34.7979 118.195 36.7105 121.258 40.5478C121.185 40.2209 121.137 40.0394 121.137 40.0394C137.37 44.8209 147.284 42.7993 147.732 39.4704Z" fill="#615A86"/>
<path opacity="0.25" d="M21.293 33.1752C9.17582 28.0789 7.10585 6.54406 7.17849 5.15198C7.17849 5.11566 7.16638 5.09145 7.14217 5.07935C5.3022 15.9376 10.9795 33.4173 18.0488 35.3662C21.6924 34.7246 23.1814 33.9741 21.293 33.1752Z" fill="#615A86"/>
<path d="M69.8827 48.6477C44.2563 48.6477 29.0645 57.9928 29.0645 75.4725C29.0645 93.6543 45.6 98.46 70.0159 98.4721C94.4318 98.4721 110.979 93.7027 110.979 75.4967C110.979 57.0123 95.5091 48.6598 69.8827 48.6477Z" fill="#E2C080"/>
<path opacity="0.2" d="M31.329 65.0264L31.0505 65.8375C54.1107 57.945 93.5853 59.1434 109.516 66.1885C104.274 55.2576 89.3969 49.0477 69.6172 49.0356C50.4307 49.0356 36.8125 54.8945 31.329 65.0264Z" fill="#615A86"/>
<path d="M31.6204 64.1792L31.6325 64.1913C52.6347 58.042 90.802 58.0541 108.633 64.4092C103.391 53.6478 89.6883 48.4306 69.9207 48.4185C50.7221 48.4306 37.104 54.2047 31.6204 64.1792Z" fill="#D2D2D2"/>
<path d="M58.9931 48.6053L70.0488 59.6672L81.1108 48.6115L70.0551 37.5495L58.9931 48.6053Z" fill="white"/>
<path opacity="0.23" d="M70.042 59.6644L81.106 48.6125L70.0541 37.5605L70.042 59.6644Z" fill="#A0A1C2"/>
<path opacity="0.9" d="M49.4382 67.2168C48.9661 69.311 51.1087 69.2262 53.0576 69.1415C55.0066 69.0568 57.3791 70.2552 56.786 66.9021C56.5439 65.5826 55.0066 64.5416 53.1908 64.4932C50.564 64.4932 49.6682 66.2121 49.4382 67.2168Z" fill="white"/>
<path opacity="0.9" d="M90.5952 66.9861C91.2126 69.0439 89.07 69.1045 87.109 69.1529C85.1601 69.2013 82.8722 70.5571 83.2354 67.1798C83.3806 65.8482 84.8574 64.7103 86.6611 64.5409C89.1789 64.2745 90.2926 65.9935 90.5952 66.9861Z" fill="white"/>
<path d="M53.1298 80.8232C55.2825 80.8232 57.0276 79.0781 57.0276 76.9254C57.0276 74.7727 55.2825 73.0276 53.1298 73.0276C50.9771 73.0276 49.2319 74.7727 49.2319 76.9254C49.2319 79.0781 50.9771 80.8232 53.1298 80.8232Z" fill="#2C376E"/>
<path d="M52.221 78.4512C52.5084 78.4512 52.7415 78.2181 52.7415 77.9307C52.7415 77.6432 52.5084 77.4102 52.221 77.4102C51.9335 77.4102 51.7004 77.6432 51.7004 77.9307C51.7004 78.2181 51.9335 78.4512 52.221 78.4512Z" fill="white"/>
<path d="M54.2308 77.155C54.9127 77.155 55.4655 76.6022 55.4655 75.9203C55.4655 75.2383 54.9127 74.6855 54.2308 74.6855C53.5489 74.6855 52.9961 75.2383 52.9961 75.9203C52.9961 76.6022 53.5489 77.155 54.2308 77.155Z" fill="white"/>
<path d="M86.9511 80.8242C89.1038 80.8242 90.8489 79.0791 90.8489 76.9264C90.8489 74.7737 89.1038 73.0286 86.9511 73.0286C84.7983 73.0286 83.0532 74.7737 83.0532 76.9264C83.0532 79.0791 84.7983 80.8242 86.9511 80.8242Z" fill="#2C376E"/>
<path d="M88.113 78.4529C88.4005 78.4529 88.6336 78.2199 88.6336 77.9324C88.6336 77.6449 88.4005 77.4119 88.113 77.4119C87.8256 77.4119 87.5925 77.6449 87.5925 77.9324C87.5925 78.2199 87.8256 78.4529 88.113 78.4529Z" fill="white"/>
<path d="M86.1041 77.1574C86.786 77.1574 87.3388 76.6046 87.3388 75.9227C87.3388 75.2408 86.786 74.688 86.1041 74.688C85.4222 74.688 84.8694 75.2408 84.8694 75.9227C84.8694 76.6046 85.4222 77.1574 86.1041 77.1574Z" fill="white"/>
<path d="M82.4592 84.8533C82.4592 89.6106 76.9029 92.419 70.0515 92.419C63.2 92.419 57.6438 89.5985 57.6438 84.8412C57.6438 80.0839 63.2 75.1935 70.0515 75.2056C76.9029 75.2056 82.4592 80.096 82.4592 84.8533Z" fill="white"/>
<path d="M74.4073 80.4591C74.4073 82.0327 72.4584 83.3038 70.0495 83.3038C67.6406 83.3038 65.6917 82.0327 65.6917 80.4591C65.6917 78.8854 67.6406 78.5586 70.0495 78.5586C72.4584 78.5586 74.4073 78.8854 74.4073 80.4591Z" fill="#2C376E"/>
<path opacity="0.8" d="M71.5619 79.9385C71.5619 80.4832 70.884 80.9311 70.0488 80.9311C69.2135 80.9311 68.5356 80.4832 68.5356 79.9385C68.5356 79.3938 69.2135 79.2727 70.0488 79.2727C70.884 79.2727 71.5619 79.3938 71.5619 79.9385Z" fill="white"/>
<path d="M75.377 83.5341C75.0502 83.4494 74.7233 83.6309 74.6386 83.9578C74.4933 84.4904 73.767 84.9746 72.9318 85.0957C72.4718 85.1683 71.3702 85.1925 70.6681 84.1999V81.7547C70.6681 81.4157 70.4018 81.1494 70.0629 81.1494C69.7239 81.1494 69.4576 81.4157 69.4576 81.7547V84.1999C68.7555 85.1925 67.654 85.1683 67.194 85.0957C66.3466 84.9746 65.6324 84.4904 65.4751 83.9578C65.3903 83.6309 65.0514 83.4494 64.7366 83.5341C64.4098 83.6188 64.2282 83.9578 64.313 84.2725C64.5914 85.2893 65.6808 86.1004 67.0245 86.2941C68.1261 86.4514 69.2518 86.1609 70.0629 85.3499C71.0918 86.403 72.3386 86.4272 73.1012 86.2941C74.4449 86.0762 75.5344 85.2893 75.8128 84.2725C75.8854 83.9457 75.6917 83.6188 75.377 83.5341Z" fill="#2C376E"/>
</g>
</svg>
